<svg width="1440" height="1024" viewBox="0 0 1440 1024" fill="none" xmlns="http://www.w3.org/2000/svg">
<g clip-path="url(#clip0_5_1556)">
<rect width="1440" height="1024" fill="white"/>
<g clip-path="url(#clip1_5_1556)">
<path d="M1516.51 18.1781H-7.61572V1023.23H1516.51V18.1781Z" fill="#610099"/>
<path d="M1532 -2H-10V1023H1532V-2Z" fill="#4181C2"/>
<path opacity="0.06" d="M-9.24162 -272.281C2.54492 -281.527 139.106 -316.704 188.285 -278.914C237.463 -241.124 219.377 -185.646 280.951 -180.821C342.729 -175.997 368.131 -221.626 432.754 -198.711C497.376 -175.796 584.556 -236.903 727.824 -86.3468C871.091 64.2094 974.731 -76.8994 1007.86 -94.1862C1040.98 -111.473 1151.12 -228.059 1309.83 -245.144C1500.65 -265.647 1640.47 -211.375 1640.47 -89.161C1640.47 32.8519 1583.16 100.793 1583.16 100.793C1583.16 100.793 1481.55 29.2337 1392.95 56.571C1304.14 83.7073 1276.91 208.936 1144.82 204.514C1012.73 200.092 961.522 121.095 858.492 116.271C755.664 111.447 644.302 269.44 442.305 312.858C240.308 356.276 155.973 192.052 -40.3337 172.755C-236.234 153.458 -247.614 -2.3248 -226.48 -49.9641C-205.548 -97.8044 -9.24162 -272.281 -9.24162 -272.281Z" fill="url(#paint0_linear_5_1556)"/>
<path opacity="0.1" d="M1549.43 947.168C1549.43 947.168 1505.74 968.101 1481.55 960.348C1457.37 952.789 1391.12 910.924 1391.12 899.101C1391.12 887.278 1448.02 933.213 1484.6 925.46C1521.18 917.708 1563.45 867.702 1564.87 888.635C1566.09 909.567 1549.43 947.168 1549.43 947.168Z" fill="#85CEE0"/>
<path opacity="0.1" d="M-217.132 1031.67C-217.132 1031.67 -166.531 945.036 -126.294 943.486C-86.0573 942.129 -25.2956 955.115 -4.16112 913.637C29.5728 847.351 124.475 871.385 137.481 856.849C160.647 830.683 67.1678 812.852 18.3959 825.644C-64.1099 847.351 -99.2663 870.997 -141.129 863.826C-182.991 856.655 -226.073 825.45 -226.073 825.45L-217.132 1031.67Z" fill="#85CEE0"/>
<path opacity="0.38" d="M1386.85 390.327C1386.85 390.327 1339.1 301.751 1312.88 301.751C1286.67 301.751 1284.84 351.563 1260.66 365.324C1236.27 379.085 1173.27 349.818 1157.02 390.327C1140.76 430.835 1244.4 460.877 1283.21 494.407C1322.03 527.938 1337.47 604.496 1373.44 607.985C1417.54 612.055 1463.47 525.224 1386.85 390.327Z" fill="#68324C"/>
<path opacity="0.04" d="M538.629 1005.9C538.629 1005.9 455.92 987.288 427.673 914.606C399.426 842.118 290.705 900.07 262.458 856.461C234.211 812.851 373.414 742.495 431.941 763.234C490.67 783.973 457.952 897.938 538.426 931.275C618.9 964.418 592.888 1014.23 538.629 1005.9Z" fill="#CC569D"/>
<path opacity="0.1" d="M1548.61 967.131C1548.61 967.131 1513.05 987.676 1485.01 982.637C1456.96 977.404 1400.06 920.033 1372.83 936.314C1339.3 956.277 1392.34 992.909 1392.34 1016.56C1392.34 1040.2 1360.84 1058.81 1365.72 1094.86H1548.82V967.131H1548.61Z" fill="#CC569D"/>
<path opacity="0.38" d="M1602 300.717C1602 300.717 1544.32 359.897 1460.23 338.231C1375.94 316.565 1340.19 165.103 1253.87 165.103C1167.34 165.103 1146.62 166.307 1108.64 152.665C1070.66 139.024 1041.82 110.537 1002.62 130.999C963.418 151.462 916.093 266.613 814.538 256.381C712.982 246.15 722.325 134.41 644.94 137.82C567.758 141.23 534.244 130.999 489.154 99.102C444.063 67.2048 423.346 26.6813 312.65 33.1009C181.846 40.5235 84.353 233.11 -239 230.703L-234.328 0H1602V300.717V300.717Z" fill="#68324C"/>
<path opacity="0.38" d="M1530.93 892.546C1530.93 892.546 1515.49 790.09 1400.47 808.556C1285.45 827.022 1247.65 858.99 1190.95 842.112C1134.26 825.235 1099.91 711.263 1027.77 697.761C955.629 684.259 910.922 679.295 869.669 628.861C828.416 578.428 814.8 507.94 732.295 524.817C649.789 541.694 555.293 682.67 454.091 667.382C352.89 652.093 321.798 570.088 220.393 630.45C118.988 690.811 122.443 815.108 -37.2854 791.48V714.241C-37.2854 714.241 74.2803 756.137 101.918 670.558C129.352 584.98 125.897 500.99 201.494 482.524C277.09 464.058 376.666 522.831 454.091 438.842C531.517 354.852 655.072 292.902 746.926 351.476C838.78 410.249 800.982 487.488 883.487 534.348C965.993 581.406 948.72 624.89 1029.4 621.713C1110.07 618.338 1204.57 517.669 1307.6 561.352C1410.63 605.034 1317.96 755.938 1537.84 725.757L1530.93 892.546Z" fill="#68324C"/>
<path opacity="0.38" d="M686.774 1102.22C686.774 1102.22 536.191 1100.83 466.894 1027.17C397.597 953.702 399.223 883.015 319.359 903.665C239.495 924.315 245.592 994.803 182.391 1019.82C119.191 1044.84 105.576 1018.43 54.3652 1046.23C3.15469 1074.23 -73.6611 1079.98 -133.813 1043.25C-194.168 1006.72 -254.32 1019.82 -267.936 1033.12V1102.22H686.774V1102.22Z" fill="#68324C"/>
<path opacity="0.18" d="M1524.43 178.676C1524.43 178.676 1486.84 119.949 1426.89 114.328C1366.94 108.514 1315.93 71.3007 1321.82 14.1241C1327.72 -43.0524 1581.33 -14.561 1581.33 -8.94029C1581.33 -3.12573 1524.43 178.676 1524.43 178.676Z" fill="#CC569D"/>
<path opacity="0.11" d="M-215.913 179.839L-202.297 221.316C-202.297 221.316 -117.962 205.23 -98.8601 148.634C-79.7577 92.0393 -33.6277 108.32 21.0375 114.91C63.7129 119.949 200.884 102.118 217.141 41.0649H-194.168L-215.913 179.839Z" fill="#CC569D"/>
<path opacity="0.27" d="M-191.526 1295.8C-172.221 1211.57 -166.531 1046.74 42.9852 932.169C147.845 874.881 167.963 864.027 241.934 793.472C315.905 722.918 536.191 656.183 678.036 722.918C754.039 758.698 879.423 788.447 986.518 788.447C1093.61 788.447 1168.6 829.855 1227.13 903.023C1285.86 976.19 1287.48 1091.17 1335.85 1113.88C1384.21 1136.6 1468.55 1239.91 1488.87 1330.77V1388.86L-191.526 1383.84V1295.8V1295.8Z" fill="url(#paint1_linear_5_1556)"/>
<path d="M165.787 -7H193.358C193.358 682.942 0.697978 1126.64 0.697978 1126.64C-6.15289 1138.78 -16.8469 1126.64 -16.8469 1126.64C-16.8469 1126.64 165.787 770.445 165.787 -7Z" fill="#B43835"/>
<path d="M87.0858 -7H112.818C112.818 778.921 -27.0396 1126.64 -27.0396 1126.64C-35.2272 1140.61 -42.9136 1126.64 -42.9136 1126.64C-42.9136 1126.64 87.0858 802.285 87.0858 -7Z" fill="#B43835"/>
<path d="M249 -7C249 654.08 9.3869 1126.64 9.3869 1126.64C4.70826 1136.49 0.697998 1126.64 0.697998 1126.64C0.697998 1126.64 193.358 682.943 193.358 -7H249Z" fill="#D54747"/>
<path d="M165.787 -7C165.787 770.445 -16.8469 1126.64 -16.8469 1126.64C-22.3611 1138.32 -27.2068 1126.64 -27.2068 1126.64C-27.2068 1126.64 112.651 778.921 112.651 -7H165.787V-7Z" fill="#D44747"/>
<path d="M87.0858 -7C87.0858 802.285 -42.9136 1126.64 -42.9136 1126.64C-46.7567 1137.18 -52.1038 1126.64 -52.1038 1126.64C-52.1038 1126.64 9.55403 559.706 9.55403 -7H87.0858V-7Z" fill="#D54747"/>
<path d="M9.55386 -7C9.55386 559.706 -52.1039 1126.64 -52.1039 1126.64C-55.6129 1135.35 -61.7954 1126.64 -61.7954 1126.64C-61.7954 1126.64 -8.65941 448.609 -8.65941 -7H9.55386V-7Z" fill="#CA5B5B"/>
<path d="M9.55403 -7C9.55403 559.706 -52.1038 1126.64 -52.1038 1126.64C-52.1038 1126.64 -46.9238 1137.18 -42.9136 1126.64C8.71857 958.278 34.9524 -7 34.9524 -7H9.55403V-7Z" fill="#B43835"/>
<path d="M1274.21 -6H1246.64C1246.64 683.942 1439.3 1127.64 1439.3 1127.64C1446.15 1139.78 1456.85 1127.64 1456.85 1127.64C1456.85 1127.64 1274.21 771.445 1274.21 -6Z" fill="#B43835"/>
<path d="M1352.91 -6H1327.18C1327.18 779.921 1467.04 1127.64 1467.04 1127.64C1475.23 1141.61 1482.91 1127.64 1482.91 1127.64C1482.91 1127.64 1352.91 803.285 1352.91 -6Z" fill="#B43835"/>
<path d="M1191 -6C1191 655.08 1430.61 1127.64 1430.61 1127.64C1435.29 1137.49 1439.3 1127.64 1439.3 1127.64C1439.3 1127.64 1246.64 683.943 1246.64 -6H1191Z" fill="#D54747"/>
<path d="M1274.21 -6C1274.21 771.445 1456.85 1127.64 1456.85 1127.64C1462.36 1139.32 1467.21 1127.64 1467.21 1127.64C1467.21 1127.64 1327.35 779.921 1327.35 -6H1274.21V-6Z" fill="#D44747"/>
<path d="M1352.91 -6C1352.91 803.285 1482.91 1127.64 1482.91 1127.64C1486.76 1138.18 1492.1 1127.64 1492.1 1127.64C1492.1 1127.64 1430.45 560.706 1430.45 -6H1352.91V-6Z" fill="#D54747"/>
<path d="M1430.45 -6C1430.45 560.706 1492.1 1127.64 1492.1 1127.64C1495.61 1136.35 1501.8 1127.64 1501.8 1127.64C1501.8 1127.64 1448.66 449.609 1448.66 -6H1430.45V-6Z" fill="#CA5B5B"/>
<path d="M1430.45 -6C1430.45 560.706 1492.1 1127.64 1492.1 1127.64C1492.1 1127.64 1486.92 1138.18 1482.91 1127.64C1431.28 959.278 1405.05 -6 1405.05 -6H1430.45V-6Z" fill="#B43835"/>
</g>
</g>
<defs>
<linearGradient id="paint0_linear_5_1556" x1="-188.09" y1="-216.635" x2="1581.11" y2="204.151" gradientUnits="userSpaceOnUse">
<stop offset="0.0265015" stop-color="#1CABA4"/>
<stop offset="0.5247" stop-color="#78358F"/>
<stop offset="0.6431" stop-color="#635094"/>
<stop offset="0.8962" stop-color="#2D95A0"/>
<stop offset="1" stop-color="#15B3A5"/>
</linearGradient>
<linearGradient id="paint1_linear_5_1556" x1="-191.515" y1="1041.85" x2="1488.96" y2="1041.85" gradientUnits="userSpaceOnUse">
<stop offset="0.0403957" stop-color="#78358F"/>
<stop offset="0.2286" stop-color="#662F87"/>
<stop offset="0.7405" stop-color="#3A1F73"/>
<stop offset="1" stop-color="#29196B"/>
</linearGradient>
<clipPath id="clip0_5_1556">
<rect width="1440" height="1024" fill="white"/>
</clipPath>
<clipPath id="clip1_5_1556">
<rect width="1984" height="1752" fill="white" transform="translate(-272 -296)"/>
</clipPath>
</defs>
</svg>
